HIERARCHY
ROOT hip
{
  OFFSET 2.8379 82.557 50.097
  CHANNELS 6 Xposition Yposition Zposition Zrotation Xrotation Yrotation
  JOINT abdomen
  {
    OFFSET 0 20.6881 -0.73152
    CHANNELS 3 Zrotation Xrotation Yrotation
    JOINT chest
    {
      OFFSET 0 11.7043 -0.48768
      CHANNELS 3 Zrotation Xrotation Yrotation
      JOINT neck
      {
        OFFSET 0 22.1894 -2.19456
        CHANNELS 3 Zrotation Xrotation Yrotation
        JOINT head
        {
          OFFSET -0.24384 7.07133 1.2192
          CHANNELS 3 Zrotation Xrotation Yrotation
          JOINT leftEye
          {
            OFFSET 4.14528 8.04674 8.04672
            CHANNELS 3 Zrotation Xrotation Yrotation
            End Site
            {
              OFFSET 1 0 0
            }
          }
          JOINT rightEye
          {
            OFFSET -3.6576 8.04674 8.04672
            CHANNELS 3 Zrotation Xrotation Yrotation
            End Site
            {
              OFFSET 1 0 0
            }
          }
        }
      }
      JOINT rCollar
      {
        OFFSET -2.68224 19.2634 -4.8768
        CHANNELS 3 Zrotation Xrotation Yrotation
        JOINT rShldr
        {
          OFFSET -8.77824 -1.95073 1.46304
          CHANNELS 3 Zrotation Xrotation Yrotation
          JOINT rForeArm
          {
            OFFSET -28.1742 -1.7115 0.48768
            CHANNELS 3 Zrotation Xrotation Yrotation
            JOINT rHand
            {
              OFFSET -22.5879 0.773209 7.07136
              CHANNELS 3 Zrotation Xrotation Yrotation
              JOINT rThumb1
              {
                OFFSET -1.2192 -0.487915 3.41376
                CHANNELS 3 Zrotation Xrotation Yrotation
                JOINT rThumb2
                {
                  OFFSET -3.37035 -0.52449 3.41376
                  CHANNELS 3 Zrotation Xrotation Yrotation
                  End Site
                  {
                    OFFSET -1.78271 -1.18214 1.43049
                  }
                }
              }
              JOINT rIndex1
              {
                OFFSET -7.75947 0.938293 5.60832
                CHANNELS 3 Zrotation Xrotation Yrotation
                JOINT rIndex2
                {
                  OFFSET -2.54057 -0.884171 1.56538
                  CHANNELS 3 Zrotation Xrotation Yrotation
                  End Site
                  {
                    OFFSET -1.62519 -0.234802 1.16502
                  }
                }
              }
              JOINT rMid1
              {
                OFFSET -8.24714 1.18213 3.41376
                CHANNELS 3 Zrotation Xrotation Yrotation
                JOINT rMid2
                {
                  OFFSET -3.10165 -0.590103 1.0647
                  CHANNELS 3 Zrotation Xrotation Yrotation
                  End Site
                  {
                    OFFSET -2.48547 -0.328903 0.83742
                  }
                }
              }
              JOINT rRing1
              {
                OFFSET -8.82822 0.546677 1.51678
                CHANNELS 3 Zrotation Xrotation Yrotation
                JOINT rRing2
                {
                  OFFSET -2.60934 -0.819778 -0.0198488
                  CHANNELS 3 Zrotation Xrotation Yrotation
                  End Site
                  {
                    OFFSET -2.33842 -0.294052 0.168128
                  }
                }
              }
              JOINT rPinky1
              {
                OFFSET -8.27202 -0.0477905 -0.4584
                CHANNELS 3 Zrotation Xrotation Yrotation
                JOINT rPinky2
                {
                  OFFSET -1.82734 -0.647385 -0.700984
                  CHANNELS 3 Zrotation Xrotation Yrotation
                  End Site
                  {
                    OFFSET -1.69225 -0.51767 -0.607171
                  }
                }
              }
            }
          }
        }
      }
      JOINT lCollar
      {
        OFFSET 2.68224 19.2634 -4.8768
        CHANNELS 3 Zrotation Xrotation Yrotation
        JOINT lShldr
        {
          OFFSET 8.77824 -1.95073 1.46304
          CHANNELS 3 Zrotation Xrotation Yrotation
          JOINT lForeArm
          {
            OFFSET 28.1742 -1.7115 0.48768
            CHANNELS 3 Zrotation Xrotation Yrotation
            JOINT lHand
            {
              OFFSET 22.5879 0.773209 7.07136
              CHANNELS 3 Zrotation Xrotation Yrotation
              JOINT lThumb1
              {
                OFFSET 1.2192 -0.487915 3.41376
                CHANNELS 3 Zrotation Xrotation Yrotation
                JOINT lThumb2
                {
                  OFFSET 3.37035 -0.52449 3.41376
                  CHANNELS 3 Zrotation Xrotation Yrotation
                  End Site
                  {
                    OFFSET 1.78271 -1.18214 1.43049
                  }
                }
              }
              JOINT lIndex1
              {
                OFFSET 7.75947 0.938293 5.60832
                CHANNELS 3 Zrotation Xrotation Yrotation
                JOINT lIndex2
                {
                  OFFSET 2.54057 -0.884171 1.56538
                  CHANNELS 3 Zrotation Xrotation Yrotation
                  End Site
                  {
                    OFFSET 1.62519 -0.234802 1.16502
                  }
                }
              }
              JOINT lMid1
              {
                OFFSET 8.24714 1.18213 3.41376
                CHANNELS 3 Zrotation Xrotation Yrotation
                JOINT lMid2
                {
                  OFFSET 3.10165 -0.590103 1.0647
                  CHANNELS 3 Zrotation Xrotation Yrotation
                  End Site
                  {
                    OFFSET 2.48547 -0.328903 0.83742
                  }
                }
              }
              JOINT lRing1
              {
                OFFSET 8.82822 0.546677 1.51678
                CHANNELS 3 Zrotation Xrotation Yrotation
                JOINT lRing2
                {
                  OFFSET 2.60934 -0.819778 -0.0198488
                  CHANNELS 3 Zrotation Xrotation Yrotation
                  End Site
                  {
                    OFFSET 2.33842 -0.294052 0.168128
                  }
                }
              }
              JOINT lPinky1
              {
                OFFSET 8.27202 -0.0477905 -0.4584
                CHANNELS 3 Zrotation Xrotation Yrotation
                JOINT lPinky2
                {
                  OFFSET 1.82734 -0.647385 -0.700984
                  CHANNELS 3 Zrotation Xrotation Yrotation
                  End Site
                  {
                    OFFSET 1.69225 -0.51767 -0.607171
                  }
                }
              }
            }
          }
        }
      }
    }
  }
  JOINT rButtock
  {
    OFFSET -8.77824 4.35084 1.2192
    CHANNELS 3 Zrotation Xrotation Yrotation
    JOINT rThigh
    {
      OFFSET 0 -1.70687 -2.19456
      CHANNELS 3 Zrotation Xrotation Yrotation
      JOINT rShin
      {
        OFFSET 0 -36.8199 0.73152
        CHANNELS 3 Zrotation Xrotation Yrotation
        JOINT rFoot
        {
          OFFSET 0.73152 -45.1104 -5.12064
          CHANNELS 3 Zrotation Xrotation Yrotation
          End Site
          {
            OFFSET -1.1221 -3.69964 12.103
          }
        }
      }
    }
  }
  JOINT lButtock
  {
    OFFSET 8.77824 4.35084 1.2192
    CHANNELS 3 Zrotation Xrotation Yrotation
    JOINT lThigh
    {
      OFFSET 0 -1.70687 -2.19456
      CHANNELS 3 Zrotation Xrotation Yrotation
      JOINT lShin
      {
        OFFSET 0 -36.8199 0.73152
        CHANNELS 3 Zrotation Xrotation Yrotation
        JOINT lFoot
        {
          OFFSET -0.73152 -45.1104 -5.12064
          CHANNELS 3 Zrotation Xrotation Yrotation
          End Site
          {
            OFFSET 1.1221 -3.69964 12.103
          }
        }
      }
    }
  }
}
MOTION
Frames:	9
Frame Time:	0.00833333
3.70614 82.9797 47.694 -2.01327 6.01175 -17.8686 7.52544 -5.02241 -6.388 1.38733 -6.38637 -2.06121 -4.84363 5.92711 -5.80141 19.7334 19.1838 -15.113 -0 0 0 -0 0 0 1.68269e-013 1.57634e-013 4.13801e-013 8.89614 28.4909 86.2598 -13.3022 -57.1671 128.734 -4.96546 -51.6621 -10.2366 6.68801e-010 -3.90769e-010 -1.80962e-009 1.22901e-009 -6.52674e-010 -3.08355e-009 6.68819e-010 -3.90777e-010 -1.80963e-009 7.73091 5.47488 0.417314 6.68801e-010 -3.9077e-010 -1.80963e-009 2.90554 0.965183 0.102902 6.6882e-010 -3.90779e-010 -1.80964e-009 10.2786 0.731801 0.0259123 6.68799e-010 -3.90772e-010 -1.80963e-009 2.22167 -0.733487 -0.20892 1.68191e-013 1.57639e-013 4.13519e-013 -120.252 -29.7385 -79.4855 6.09785 -2.08693 -10.6617 161.989 40.4187 -173.456 7.62855e-010 -1.87393e-008 7.13651e-010 1.3034e-009 -3.08555e-008 1.05295e-009 7.62854e-010 -1.87392e-008 7.13657e-010 -7.73091 5.47488 -0.417314 7.62858e-010 -1.87392e-008 7.13655e-010 -2.90554 0.965183 -0.102902 7.62847e-010 -1.87393e-008 7.13652e-010 -10.2786 0.731801 -0.0259123 7.62859e-010 -1.87392e-008 7.13647e-010 -2.22167 -0.733487 0.20892 -2.03217e-016 0 -3.88251e-019 2.0435 -9.04566 25.6584 0.00913409 2.70381 0.374618 -1.90931 -2.4517 -8.65982 2.03217e-016 0 3.88251e-019 1.50178 -8.34563 -22.8019 -0.00397405 15.8009 -0.337734 12.1572 -14.5469 45.4343 
3.64629 82.9864 47.6454 -2.17498 6.02646 -17.8767 7.60382 -4.93309 -6.61375 1.4777 -6.47001 -2.11884 -4.76136 5.93661 -5.73484 19.5977 18.9769 -14.9312 -0 0 0 -0 0 0 1.92165e-013 2.06137e-013 3.70141e-013 8.87621 28.4523 86.4222 -13.3204 -57.1594 128.698 -4.99949 -51.7785 -10.2799 6.55401e-010 -4.03207e-010 -2.03848e-009 1.21599e-009 -6.7347e-010 -3.47841e-009 6.55426e-010 -4.03214e-010 -2.03849e-009 7.73091 5.47488 0.417314 6.55401e-010 -4.03205e-010 -2.03849e-009 2.90554 0.965183 0.102902 6.55427e-010 -4.03217e-010 -2.0385e-009 10.2786 0.731801 0.0259123 6.55401e-010 -4.03209e-010 -2.03849e-009 2.22167 -0.733487 -0.20892 1.92072e-013 2.06142e-013 3.69779e-013 -133.531 -30.5605 -85.3494 6.27543 -2.16775 -10.9794 163.171 28.7984 -175.755 5.03998e-010 -1.79681e-008 8.89107e-010 8.77906e-010 -2.99115e-008 1.33404e-009 5.03996e-010 -1.79681e-008 8.89113e-010 -7.73091 5.47488 -0.417314 5.04e-010 -1.79681e-008 8.89109e-010 -2.90554 0.965183 -0.102902 5.03989e-010 -1.79681e-008 8.89105e-010 -10.2786 0.731801 -0.0259123 5.04002e-010 -1.79681e-008 8.89098e-010 -2.22167 -0.733487 0.20892 -2.03217e-016 0 -3.88251e-019 2.29288 -9.14577 25.6568 0.00688217 2.91162 0.376831 -1.90235 -2.49126 -8.57803 2.03217e-016 0 3.88251e-019 1.70336 -8.33689 -22.8747 -0.00364197 15.8144 -0.334557 12.347 -14.7101 45.5276 
3.59554 82.9922 47.5763 -2.23053 6.06234 -18.0772 7.57754 -4.83044 -6.78574 1.56209 -6.63031 -2.15852 -4.67676 5.96696 -5.66147 19.4668 18.7593 -14.7411 -0 0 0 -0 0 0 1.87335e-013 2.21046e-013 3.34157e-013 8.88562 28.4518 86.5623 -13.3579 -57.1437 128.623 -5.02523 -51.8659 -10.3126 5.78389e-010 -3.71775e-010 -1.98048e-009 1.08056e-009 -6.20851e-010 -3.3822e-009 5.78418e-010 -3.7178e-010 -1.9805e-009 7.73091 5.47488 0.417314 5.78387e-010 -3.7177e-010 -1.98049e-009 2.90554 0.965183 0.102902 5.78418e-010 -3.71784e-010 -1.9805e-009 10.2786 0.731801 0.0259123 5.78388e-010 -3.71775e-010 -1.98049e-009 2.22167 -0.733487 -0.20892 1.87237e-013 2.21051e-013 3.33759e-013 -143.756 -30.4968 -90.0547 6.43734 -2.24224 -11.2698 163.494 19.8011 -177.1 2.91963e-010 -1.59336e-008 9.33477e-010 5.26499e-010 -2.68184e-008 1.41481e-009 2.91962e-010 -1.59336e-008 9.33483e-010 -7.73091 5.47488 -0.417314 2.91966e-010 -1.59336e-008 9.33477e-010 -2.90554 0.965183 -0.102902 2.91954e-010 -1.59336e-008 9.33473e-010 -10.2786 0.731801 -0.0259123 2.91967e-010 -1.59336e-008 9.33464e-010 -2.22167 -0.733487 0.20892 -2.03217e-016 0 -3.88251e-019 2.50285 -9.42327 25.6419 0.00267587 3.27011 0.383393 -1.86451 -2.53299 -8.30312 2.03217e-016 0 3.88251e-019 1.79603 -8.35464 -22.9404 -0.00308912 15.847 -0.33197 12.6296 -14.9209 45.7811 
3.56827 82.9885 47.4811 -2.13503 6.12035 -18.4858 7.39226 -4.6987 -6.87997 1.64067 -6.96103 -2.17093 -4.62003 6.0735 -5.60257 19.4012 18.5204 -14.5931 -0 0 0 -0 0 0 1.35047e-013 1.84365e-013 3.0837e-013 8.94916 28.5683 86.6392 -13.4064 -57.123 128.527 -5.02883 -51.8776 -10.3171 3.75038e-010 -2.61306e-010 -1.43811e-009 7.05756e-010 -4.36201e-010 -2.45769e-009 3.75069e-010 -2.61311e-010 -1.43813e-009 7.73091 5.47488 0.417314 3.75036e-010 -2.61301e-010 -1.43812e-009 2.90554 0.965183 0.102902 3.75069e-010 -2.61314e-010 -1.43813e-009 10.2786 0.731801 0.0259123 3.75037e-010 -2.61305e-010 -1.43812e-009 2.22167 -0.733487 -0.20892 1.34956e-013 1.84368e-013 3.08005e-013 -149.529 -30.1414 -92.9334 6.57788 -2.30784 -11.5222 163.575 14.5384 -177.816 1.32074e-010 -1.16721e-008 7.7402e-010 2.56216e-010 -1.99992e-008 1.1868e-009 1.32072e-010 -1.16721e-008 7.74028e-010 -7.73091 5.47488 -0.417314 1.32076e-010 -1.16722e-008 7.74019e-010 -2.90554 0.965183 -0.102902 1.32064e-010 -1.16721e-008 7.74016e-010 -10.2786 0.731801 -0.0259123 1.32078e-010 -1.16722e-008 7.74007e-010 -2.22167 -0.733487 0.20892 -2.03217e-016 0 -3.88251e-019 2.64187 -9.96207 25.5774 -0.00496827 3.87958 0.395986 -1.78883 -2.60205 -7.7808 2.03217e-016 0 3.88251e-019 1.73412 -8.42381 -22.9799 -0.00267911 15.9135 -0.33301 12.9691 -15.1326 46.1941 
3.54242 82.9901 47.3758 -1.94197 6.19614 -19.0474 7.10401 -4.54304 -6.94193 1.72089 -7.41872 -2.17034 -4.5753 6.24224 -5.54798 19.3611 18.2433 -14.4575 -0 0 0 -0 0 0 4.92253e-014 1.13356e-013 2.87775e-013 9.04613 28.7662 86.6855 -13.4631 -57.0985 128.414 -5.01895 -51.8433 -10.3045 9.73036e-011 -1.02607e-010 -5.90669e-010 1.89082e-010 -1.70773e-010 -1.01124e-009 9.73345e-011 -1.02611e-010 -5.90688e-010 7.73091 5.47488 0.417314 9.73029e-011 -1.02604e-010 -5.90675e-010 2.90554 0.965183 0.102902 9.73356e-011 -1.02615e-010 -5.90688e-010 10.2786 0.731801 0.0259123 9.73014e-011 -1.02605e-010 -5.9067e-010 2.22167 -0.733487 -0.20892 4.91484e-014 1.13358e-013 2.87486e-013 -152.516 -29.8099 -94.7054 6.72876 -2.37894 -11.7937 163.683 11.6343 -178.256 2.23498e-011 -5.84064e-009 4.70043e-010 6.61736e-011 -1.05582e-008 7.369e-010 2.23474e-011 -5.84065e-009 4.70051e-010 -7.73091 5.47488 -0.417314 2.23515e-011 -5.84067e-009 4.70041e-010 -2.90554 0.965183 -0.102902 2.23394e-011 -5.84065e-009 4.70039e-010 -10.2786 0.731801 -0.0259123 2.23551e-011 -5.84066e-009 4.70031e-010 -2.22167 -0.733487 0.20892 -2.03217e-016 0 -3.88251e-019 2.74368 -10.6868 25.4887 -0.0153935 4.66568 0.412932 -1.68505 -2.6887 -7.08499 2.03217e-016 0 3.88251e-019 1.57618 -8.52808 -23.0058 -0.00228226 16.0026 -0.336167 13.3691 -15.3552 46.7306 
3.48968 82.9969 47.25 -1.70861 6.28813 -19.7684 6.79239 -4.3951 -6.99162 1.79704 -7.82503 -2.16712 -4.48704 6.35917 -5.45742 19.2414 17.9642 -14.2439 -0 0 0 -0 0 0 -3.8423e-014 3.55637e-014 2.70455e-013 9.1351 28.8956 86.7711 -13.5478 -57.0623 128.246 -5.01979 -51.846 -10.3055 -1.5265e-010 4.83041e-011 2.51901e-010 -2.79444e-010 8.19888e-011 4.28148e-010 -1.5262e-010 4.82996e-011 2.51881e-010 7.73091 5.47488 0.417314 -1.52649e-010 4.83048e-011 2.51899e-010 2.90554 0.965183 0.102902 -1.52618e-010 4.82973e-011 2.51887e-010 10.2786 0.731801 0.0259123 -1.52653e-010 4.83063e-011 2.51907e-010 2.22167 -0.733487 -0.20892 -3.84839e-014 3.55637e-014 2.7025e-013 -154.379 -29.5009 -96.1881 6.87952 -2.45063 -12.0658 163.826 9.74455 -178.586 -4.7698e-011 -1.14358e-010 1.40728e-010 -5.87971e-011 -1.21513e-009 2.43966e-010 -4.77008e-011 -1.14385e-010 1.40738e-010 -7.73091 5.47488 -0.417314 -4.76968e-011 -1.14392e-010 1.40726e-010 -2.90554 0.965183 -0.102902 -4.77087e-011 -1.14367e-010 1.40725e-010 -10.2786 0.731801 -0.0259123 -4.76919e-011 -1.14385e-010 1.40718e-010 -2.22167 -0.733487 0.20892 -2.03217e-016 0 -3.88251e-019 2.85237 -11.4664 25.4447 -0.0264387 5.4585 0.431853 -1.55968 -2.74316 -6.28232 2.03217e-016 0 3.88251e-019 1.3808 -8.62342 -23.0517 -0.00118242 16.0897 -0.335738 13.92 -15.6698 47.4234 
3.43804 82.9978 47.1058 -1.49191 6.39436 -20.6552 6.53704 -4.28652 -7.04898 1.8631 -8.00162 -2.1715 -4.29916 6.31022 -5.29064 18.9384 17.7187 -13.8621 -0 0 0 -0 0 0 -9.61903e-014 -2.14687e-014 2.54494e-013 9.17543 28.8059 86.9643 -13.6802 -57.0061 127.981 -5.05564 -51.9688 -10.3513 -2.72657e-010 1.35409e-010 7.79659e-010 -5.09806e-010 2.28637e-010 1.33149e-009 -2.7263e-010 1.35405e-010 7.7964e-010 7.73091 5.47488 0.417314 -2.72656e-010 1.35408e-010 7.79659e-010 2.90554 0.965183 0.102902 -2.72628e-010 1.35403e-010 7.79649e-010 10.2786 0.731801 0.0259123 -2.72662e-010 1.35411e-010 7.79668e-010 2.22167 -0.733487 -0.20892 -9.62396e-014 -2.14691e-014 2.54345e-013 -156.74 -29.0328 -98.1406 7.0199 -2.51803 -12.3197 163.93 7.52065 -178.937 -8.85595e-011 3.83145e-009 -9.47392e-011 -1.33866e-010 5.31019e-009 -1.1315e-010 -8.85625e-011 3.83142e-009 -9.47296e-011 -7.73091 5.47488 -0.417314 -8.85589e-011 3.83142e-009 -9.47424e-011 -2.90554 0.965183 -0.102902 -8.857e-011 3.83144e-009 -9.47416e-011 -10.2786 0.731801 -0.0259123 -8.85532e-011 3.83142e-009 -9.47487e-011 -2.22167 -0.733487 0.20892 -2.03217e-016 0 -3.88251e-019 3.01617 -12.1677 25.5123 -0.0356113 6.08813 0.450282 -1.42239 -2.71546 -5.43957 2.03217e-016 0 3.88251e-019 1.20649 -8.66582 -23.1515 0.00130353 16.1502 -0.326011 14.7184 -16.1509 48.309 
3.36515 82.9961 46.966 -1.30444 6.51014 -21.7474 6.35975 -4.25046 -7.11491 1.92336 -7.81765 -2.1865 -3.98657 6.0308 -5.02662 18.3804 17.5282 -13.2563 -0 0 0 -0 0 0 -1.06955e-013 -4.87901e-014 2.84226e-013 9.13957 28.3842 87.2911 -13.8711 -56.9235 127.599 -5.14714 -52.277 -10.4675 -6.8901e-011 1.40116e-010 6.45911e-010 -1.52597e-010 2.48948e-010 1.11138e-009 -6.88781e-011 1.40112e-010 6.45895e-010 7.73091 5.47488 0.417314 -6.88998e-011 1.40113e-010 6.45912e-010 2.90554 0.965183 0.102902 -6.88748e-011 1.4011e-010 6.45902e-010 10.2786 0.731801 0.0259123 -6.89064e-011 1.40116e-010 6.45919e-010 2.22167 -0.733487 -0.20892 -1.06999e-013 -4.87888e-014 2.84095e-013 -159.9 -28.1343 -100.749 7.14773 -2.58017 -12.551 163.973 4.6762 -179.339 -9.8149e-011 1.20355e-008 -1.54968e-010 -1.55275e-010 1.80394e-008 -2.20193e-010 -9.81519e-011 1.20355e-008 -1.5496e-010 -7.73091 5.47488 -0.417314 -9.8149e-011 1.20355e-008 -1.54971e-010 -2.90554 0.965183 -0.102902 -9.81583e-011 1.20355e-008 -1.5497e-010 -10.2786 0.731801 -0.0259123 -9.81434e-011 1.20355e-008 -1.54978e-010 -2.22167 -0.733487 0.20892 -2.03217e-016 0 -3.88251e-019 3.26713 -12.7557 25.7362 -0.0422208 6.51554 0.468225 -1.27664 -2.56505 -4.56804 2.03217e-016 0 3.88251e-019 1.04747 -8.60925 -23.3803 0.00579017 16.1587 -0.303166 15.884 -16.8387 49.5177 
3.25576 83.0001 46.83 -1.11299 6.63414 -23.0294 6.2176 -4.26176 -7.18022 1.97931 -7.39601 -2.20656 -3.57836 5.59262 -4.69089 17.6396 17.3673 -12.4858 -0 0 0 -0 0 0 -9.05159e-014 -6.16256e-014 3.45724e-013 9.06263 27.7311 87.697 -14.1064 -56.8188 127.126 -5.27978 -52.7116 -10.6349 3.48606e-010 9.35191e-011 1.03974e-010 5.9126e-010 1.91195e-010 1.98721e-010 3.48623e-010 9.35148e-011 1.03961e-010 7.73091 5.47488 0.417314 3.48608e-010 9.35155e-011 1.03974e-010 2.90554 0.965183 0.102902 3.48628e-010 9.35131e-011 1.03966e-010 10.2786 0.731801 0.0259123 3.48601e-010 9.35172e-011 1.03977e-010 2.22167 -0.733487 -0.20892 -9.05581e-014 -6.16212e-014 3.45593e-013 -162.965 -26.8651 -103.515 7.26842 -2.63957 -12.7695 164 1.90682 -179.73 -7.24995e-011 2.32295e-008 -1.20059e-010 -1.17533e-010 3.51741e-008 -1.94738e-010 -7.25021e-011 2.32295e-008 -1.20054e-010 -7.73091 5.47488 -0.417314 -7.25004e-011 2.32295e-008 -1.20063e-010 -2.90554 0.965183 -0.102902 -7.2507e-011 2.32295e-008 -1.20062e-010 -10.2786 0.731801 -0.0259123 -7.24953e-011 2.32295e-008 -1.2007e-010 -2.22167 -0.733487 0.20892 -2.03217e-016 0 -3.88251e-019 3.57886 -13.2984 26.0721 -0.047445 6.82925 0.486726 -1.12387 -2.32691 -3.63465 2.03217e-016 0 3.88251e-019 0.880724 -8.48884 -23.6982 0.0117946 16.1345 -0.271024 17.3672 -17.6431 51.0062 
